<svg width="600" height="600" xmlns="http://www.w3.org/2000/svg">
 <g>
  <title>Layer 1</title>
  <g id="svg_1">
   <path id="svg-girl-path" fill="#666" d="m130,141q-49,49 -49,119q0,64 44,113l-60,60l-42,-43q-6,-6 -12,0q-6,6 0,12l43,42l-51,50q-6,6 0,12q2,2 6,2q4,0 6,-2l50,-51l42,43q2,2 6,2q4,0 6,-2q6,-6 0,-12l-43,-42l60,-60q49,44 113,44q70,0 119,-49q49,-49 49,-119q0,-70 -49,-119q-49,-49 -119,-49q-70,0 -119,49zm226,227q-44,44 -107,44q-64,0 -108,-44q-44,-44 -44,-108q0,-64 44,-108q44,-44 108,-44q63,0 107,44q45,45 45,108q0,63 -45,108z"/>
  </g>
  <g id="svg_3">
   <path id="svg-boy-path" fill="#4988b4" d="m480,92q-8,0 -8,8q0,8 8,8l92,0l-107,108q-49,-44 -113,-44q-70,0 -119,49q-49,49 -49,119q0,70 49,119q49,49 119,49q70,0 119,-49q49,-49 49,-119q0,-64 -44,-113l108,-107l0,92q0,8 8,8q8,0 8,-8l0,-112q0,-8 -8,-8l-112,0zm-20,356q-44,44 -108,44q-64,0 -108,-44q-44,-44 -44,-108q0,-64 44,-108q44,-44 108,-44q64,0 108,44q44,44 44,108q0,64 -44,108z"/>
  </g>
 </g>

</svg>