<?xml version="1.0" encoding="utf-8"?><!DOCTYPE svg PUBLIC "-//W3C//DTD SVG 1.1//EN" "http://www.w3.org/Graphics/SVG/1.1/DTD/svg11.dtd"><svg id="system-daishouhuo" width="128" height="128" style="width:128px;height:128px;" version="1.1" xmlns="http://www.w3.org/2000/svg" viewBox="0 0 1024 1024" enable-background="new 0 0 1024 1024" xml:space="preserve"><path fill="#666" d="M296 -16 q-8 0 -8 8 q0 8 8 8 l92 0 l-107 108 q-49 -44 -113 -44 q-70 0 -119 49 q-49 49 -49 119 q0 70 49 119 q49 49 119 49 q70 0 119 -49 q49 -49 49 -119 q0 -64 -44 -113 l108 -107 l0 92 q0 8 8 8 q8 0 8 -8 l0 -112 q0 -8 -8 -8 l-112 0 ZM276 340 q-44 44 -108 44 q-64 0 -108 -44 q-44 -44 -44 -108 q0 -64 44 -108 q44 -44 108 -44 q64 0 108 44 q44 44 44 108 q0 64 -44 108 Z"/></svg>