<?xml version="1.0" encoding="utf-8"?><!DOCTYPE svg PUBLIC "-//W3C//DTD SVG 1.1//EN" "http://www.w3.org/Graphics/SVG/1.1/DTD/svg11.dtd"><svg id="system-daishouhuo" width="128" height="128" style="width:128px;height:128px;" version="1.1" xmlns="http://www.w3.org/2000/svg" viewBox="0 0 1024 1024" enable-background="new 0 0 1024 1024" xml:space="preserve"><path fill="#666" d="M129 33 q-49 49 -49 119 q0 64 44 113 l-60 60 l-42 -43 q-6 -6 -12 0 q-6 6 0 12 l43 42 l-51 50 q-6 6 0 12 q2 2 6 2 q4 0 6 -2 l50 -51 l42 43 q2 2 6 2 q4 0 6 -2 q6 -6 0 -12 l-43 -42 l60 -60 q49 44 113 44 q70 0 119 -49 q49 -49 49 -119 q0 -70 -49 -119 q-49 -49 -119 -49 q-70 0 -119 49 ZM355 260 q-44 44 -107 44 q-64 0 -108 -44 q-44 -44 -44 -108 q0 -64 44 -108 q44 -44 108 -44 q63 0 107 44 q45 45 45 108 q0 63 -45 108 Z"/></svg>