<svg width="1024" height="1024" xmlns="http://www.w3.org/2000/svg" p-id="8923" version="1.1" class="icon" t="1741223820675"> <g><title>Layer 1</title><path id="svg_1" p-id="8924" d="m890.53893,559.56995c2.11457,-16.29403 3.48265,-32.58705 3.48265,-49.99931c0,-17.28835 -1.61691,-33.58237 -3.48265,-49.99931l107.46159,-84.07835c9.70146,-7.58789 12.3137,-21.39358 6.09489,-32.58804l-101.86436,-176.24124c-6.09489,-11.19246 -19.90059,-15.29769 -31.09405,-11.19246l-126.86451,50.99364c-26.49215,-20.39726 -55.09888,-37.18794 -86.06801,-49.99931l-19.40292,-135.07299c-1.61591,-12.3127 -12.18879,-21.39258 -24.99916,-21.39258l-203.85364,0c-12.68645,0 -23.38424,9.2038 -25.00015,21.39259l-19.40293,135.07298c-31.09404,12.68645 -59.57585,30.09972 -86.068,49.99931l-126.86452,-50.99464c-11.81503,-4.6019 -24.99915,0 -31.09404,11.19446l-101.86337,176.24124c-6.71547,11.19346 -3.48165,24.99915 6.0949,32.58704l107.46159,84.07835c-2.11458,16.29302 -3.48265,33.0837 -3.48265,49.99931c0,16.9146 1.61691,33.58137 3.48265,49.99931l-107.58551,84.07834c-9.70246,7.58689 -12.3137,21.39259 -6.09489,32.58604l101.86436,176.24125c6.09389,11.19446 19.90059,15.29869 31.09405,11.19446l126.86451,-50.99564c26.49215,20.39825 55.09788,37.18994 86.06801,50.00031l19.40192,135.07298c1.61691,12.18879 12.18979,21.39259 25.00016,21.39259l203.85264,0c12.68645,0 23.38324,-9.2038 25.00015,-21.39259l19.40193,-135.07298c31.09405,-12.68646 59.57685,-30.09972 86.069,-49.99931l126.86452,50.99464c11.81504,4.60189 24.99915,0 31.09305,-11.19446l101.86436,-176.24125c6.09489,-11.19345 3.48265,-24.99915 -6.0939,-32.58604l-107.33767,-84.07834zm-378.60089,128.48042c-98.38171,0 -178.35582,-79.97411 -178.35582,-178.35582s79.97411,-178.35582 178.35582,-178.35581s178.35582,79.97411 178.35582,178.35581s-79.97411,178.35582 -178.35582,178.35582zm0,0" fill="#333"/> </g></svg>