<svg width="2560" height="2560" xmlns="http://www.w3.org/2000/svg" data-name="&amp;lt;Layer&amp;gt;">
 <g>
  <title>Layer 1</title>
  <g id="svg_1">
   <path id="svg_2" stroke-width="0px" d="m1702.75995,434.49995c157.3,147.47 255.62,334.27 275.28,540.73c19.66,294.94 -186.8,639.05 -511.24,599.72c137.64,-9.83 255.62,-98.31 324.44,-206.46c206.46,-304.78 58.99,-678.37 -206.46,-884.83c-334.27,-255.62 -766.86,-216.29 -1101.13,-9.83c403.09,-245.79 963.48,-226.12 1248.6,196.63c127.81,196.63 167.14,442.42 29.49,639.05c-49.16,58.99 -98.31,117.98 -176.97,127.81c186.8,-127.81 226.12,-383.43 147.47,-580.06c-78.65,-186.8 -235.96,-314.61 -422.75,-383.43c-108.15,-29.49 -226.12,-49.16 -334.27,-39.33c-334.27,39.33 -629.21,245.79 -786.52,540.73c206.46,-363.76 619.38,-609.55 1042.14,-501.41c137.64,39.33 245.79,108.15 344.1,206.46c98.32,108.15 137.64,245.79 137.64,383.43c-9.83,68.82 -39.33,147.47 -88.48,196.63c58.99,-127.81 49.16,-265.45 -9.83,-383.43c-117.98,-206.46 -334.27,-324.44 -560.39,-324.44s-442.42,108.15 -599.72,275.28c-162.61,170.67 -244.51,381.76 -262.4,599.72c17.7,-212.46 96.84,-408.1 242.74,-570.23c147.47,-157.3 334.27,-255.62 540.73,-275.28c294.94,-19.66 639.05,186.8 599.72,511.24c-9.83,-137.64 -98.31,-255.62 -206.46,-324.44c-304.78,-206.46 -678.37,-58.99 -884.83,206.46c-255.62,334.27 -216.29,766.86 -9.83,1101.13c-245.79,-403.09 -226.12,-963.48 196.63,-1248.6c196.63,-127.81 442.42,-167.14 639.05,-29.49c58.99,49.16 117.98,98.31 127.81,176.97c-127.81,-186.8 -383.43,-226.12 -580.06,-147.47c-186.8,78.65 -314.61,235.96 -383.43,422.75c-29.49,108.15 -49.16,226.12 -39.33,334.27c39.33,334.27 245.79,629.21 540.73,786.52c-363.76,-206.46 -609.55,-619.38 -501.41,-1042.14c39.33,-137.64 108.15,-245.79 206.46,-344.1c108.15,-98.32 245.79,-137.64 383.43,-137.64c68.82,9.83 147.47,39.33 196.63,88.48c-127.81,-58.99 -265.45,-49.16 -383.43,9.83c-206.46,117.98 -324.44,334.27 -324.44,560.39s108.15,442.42 275.28,599.72c170.67,162.61 381.76,244.51 599.72,262.4c-212.46,-17.7 -408.1,-96.84 -570.23,-242.74c-157.3,-147.47 -255.62,-334.27 -275.28,-540.73c-19.66,-294.94 186.8,-639.05 511.24,-599.72c-137.64,9.83 -255.62,98.31 -324.44,206.46c-206.46,304.78 -58.99,678.37 206.46,884.83c334.27,255.62 766.86,216.29 1101.13,9.83c-403.09,245.79 -963.48,226.12 -1248.6,-196.63c-127.81,-196.63 -167.14,-442.42 -29.49,-639.05c49.16,-58.99 98.31,-117.98 176.97,-127.81c-186.8,127.81 -226.12,383.43 -147.47,580.06c78.65,186.8 235.96,314.61 422.75,383.43c108.15,29.49 226.12,49.16 334.27,39.33c334.27,-39.33 629.21,-245.79 786.52,-540.73c-206.46,363.76 -619.38,609.55 -1042.14,501.41c-137.64,-39.33 -245.79,-108.15 -344.1,-206.46c-98.32,-108.15 -137.64,-245.79 -137.64,-383.43c9.83,-68.82 39.33,-147.47 88.48,-196.63c-58.99,127.81 -49.16,265.45 9.83,383.43c117.98,206.46 334.27,324.44 560.39,324.44s442.42,-108.15 599.72,-275.28c162.61,-170.67 244.51,-381.76 262.4,-599.72c-17.7,212.46 -96.84,408.1 -242.74,570.23c-147.47,157.3 -334.27,255.62 -540.73,275.28c-294.94,19.66 -639.05,-186.8 -599.72,-511.24c9.83,137.64 98.31,255.62 206.46,324.44c304.78,206.46 678.37,58.99 884.83,-206.46c255.62,-334.27 216.29,-766.86 9.83,-1101.13c245.79,403.09 226.12,963.48 -196.63,1248.6c-196.63,127.81 -442.42,167.14 -639.05,29.49c-58.99,-49.16 -117.98,-98.31 -127.81,-176.97c127.81,186.8 383.43,226.12 580.06,147.47c186.8,-78.65 314.61,-235.96 383.43,-422.75c29.49,-108.15 49.16,-226.12 39.33,-334.27c-39.33,-334.27 -245.79,-629.21 -540.73,-786.52c363.76,206.46 609.55,619.38 501.41,1042.14c-39.33,137.64 -108.15,245.79 -206.46,344.1c-108.15,98.32 -245.79,137.64 -383.43,137.64c-68.82,-9.83 -147.47,-39.33 -196.63,-88.48c127.81,58.99 265.45,49.16 383.43,-9.83c206.46,-117.98 324.44,-334.27 324.44,-560.39s-108.15,-442.42 -275.28,-599.72l-29.49,-19.66zm-422.75,599.72c135.77,0 245.79,110.01 245.79,245.79s-110.01,245.79 -245.79,245.79s-245.79,-110.01 -245.79,-245.79s110.01,-245.79 245.79,-245.79z" class="uuid-6211589f-d9b1-4163-920e-c50bd3806584" fill="#4ba8b7"/>
   <circle id="svg_3" fill="#4ba8b7" stroke-width="0px" r="196.63" cy="1280" cx="1280.00006" class="uuid-6211589f-d9b1-4163-920e-c50bd3806584"/>
  </g>
 </g>

</svg>