<?xml version="1.0" standalone="no"?>
<!DOCTYPE svg PUBLIC "-//W3C//DTD SVG 20010904//EN"
 "http://www.w3.org/TR/2001/REC-SVG-20010904/DTD/svg10.dtd">
<svg version="1.0" xmlns="http://www.w3.org/2000/svg"
 width="126.000000pt" height="125.000000pt" viewBox="0 0 126.000000 125.000000"
 preserveAspectRatio="xMidYMid meet">

<g transform="translate(0.000000,125.000000) scale(0.100000,-0.100000)"
fill="#000000" stroke="none">
<path d="M802 1118 c-7 -7 -12 -17 -12 -23 0 -17 304 -315 322 -315 10 0 22
10 29 21 10 20 -2 35 -142 175 -85 85 -161 154 -169 154 -9 0 -21 -5 -28 -12z"/>
<path d="M530 829 c-135 -77 -256 -151 -269 -164 -18 -18 -33 -65 -72 -226
-52 -218 -55 -239 -38 -239 17 0 253 241 267 273 9 22 18 27 45 27 42 0 57
-15 57 -57 0 -27 -5 -36 -27 -45 -39 -16 -263 -239 -263 -261 0 -13 5 -17 18
-13 9 3 103 26 207 51 212 51 230 58 249 94 7 14 30 55 51 91 20 36 46 81 57
100 22 39 82 141 122 210 15 25 34 60 43 78 l17 33 -94 94 c-52 52 -101 95
-110 95 -8 0 -125 -64 -260 -141z"/>
</g>
</svg>
